<svg width="239" height="53" viewBox="0 0 239 53" fill="none" xmlns="http://www.w3.org/2000/svg">
<g filter="url(#filter0_d_92_1933)">
<path d="M4.664 17C4.52533 17 4.404 16.9567 4.3 16.87C4.196 16.766 4.144 16.6447 4.144 16.506V1.426C4.144 1.28733 4.196 1.17467 4.3 1.088C4.404 0.983999 4.52533 0.931999 4.664 0.931999H8.876C9.552 0.931999 10.176 1.04467 10.748 1.27C11.3373 1.49533 11.84 1.816 12.256 2.232C12.6893 2.63067 13.0273 3.10733 13.27 3.662C13.5127 4.19933 13.634 4.79733 13.634 5.456V12.502C13.634 13.1433 13.5127 13.7413 13.27 14.296C13.0273 14.8507 12.6893 15.3273 12.256 15.726C11.84 16.1247 11.3373 16.4367 10.748 16.662C10.176 16.8873 9.552 17 8.876 17H4.664ZM10.514 5.274C10.514 4.63267 10.3407 4.182 9.994 3.922C9.64733 3.662 9.27467 3.532 8.876 3.532H7.264V14.426H8.876C9.27467 14.426 9.64733 14.296 9.994 14.036C10.3407 13.776 10.514 13.3253 10.514 12.684V5.274ZM18.7913 16.506C18.7913 16.6447 18.7393 16.766 18.6353 16.87C18.5313 16.9567 18.41 17 18.2713 17H16.1913C16.0527 17 15.9313 16.9567 15.8273 16.87C15.7233 16.766 15.6713 16.6447 15.6713 16.506V1.426C15.6713 1.28733 15.7233 1.17467 15.8273 1.088C15.9313 0.983999 16.0527 0.931999 16.1913 0.931999H18.2713C18.41 0.931999 18.5313 0.983999 18.6353 1.088C18.7393 1.17467 18.7913 1.28733 18.7913 1.426V16.506ZM20.6895 12.606C20.6895 12.4673 20.7415 12.3547 20.8455 12.268C20.9669 12.164 21.0969 12.112 21.2355 12.112H23.3155C23.4542 12.112 23.5669 12.164 23.6535 12.268C23.7575 12.3547 23.8182 12.4673 23.8355 12.606C23.8355 12.814 23.8529 13.0393 23.8875 13.282C23.9222 13.5073 24.0002 13.724 24.1215 13.932C24.2429 14.1227 24.4162 14.2787 24.6415 14.4C24.8842 14.5213 25.2135 14.582 25.6295 14.582C26.0282 14.582 26.3315 14.5127 26.5395 14.374C26.7649 14.218 26.9209 14.0447 27.0075 13.854C27.1115 13.646 27.1722 13.4553 27.1895 13.282C27.2069 13.0913 27.2155 12.97 27.2155 12.918C27.2155 12.242 26.9989 11.7133 26.5655 11.332C26.1495 10.9507 25.5775 10.5867 24.8495 10.24C24.3815 9.99733 23.8962 9.746 23.3935 9.486C22.9082 9.20867 22.4662 8.87933 22.0675 8.498C21.6689 8.09933 21.3395 7.64 21.0795 7.12C20.8369 6.58267 20.7155 5.94133 20.7155 5.196C20.7155 4.69333 20.7675 4.182 20.8715 3.662C20.9929 3.142 21.2182 2.66533 21.5475 2.232C21.8769 1.79867 22.3362 1.44333 22.9255 1.166C23.5322 0.888666 24.3209 0.75 25.2915 0.75C26.2449 0.75 27.0075 0.914667 27.5795 1.244C28.1689 1.556 28.6282 1.946 28.9575 2.414C29.2869 2.882 29.5122 3.376 29.6335 3.896C29.7549 4.39867 29.8242 4.832 29.8415 5.196C29.8415 5.33467 29.7809 5.456 29.6595 5.56C29.5555 5.64667 29.4342 5.69 29.2955 5.69H27.2155C27.0769 5.69 26.9555 5.64667 26.8515 5.56C26.7649 5.456 26.7129 5.33467 26.6955 5.196C26.6782 4.988 26.6435 4.78 26.5915 4.572C26.5395 4.34667 26.4615 4.14733 26.3575 3.974C26.2535 3.78333 26.1062 3.636 25.9155 3.532C25.7422 3.41067 25.5169 3.35 25.2395 3.35C24.6849 3.35 24.3122 3.52333 24.1215 3.87C23.9309 4.21667 23.8355 4.598 23.8355 5.014C23.8355 5.39533 23.9049 5.72467 24.0435 6.002C24.1995 6.27933 24.3989 6.53067 24.6415 6.756C24.9015 6.964 25.1962 7.15467 25.5255 7.328C25.8549 7.50133 26.2015 7.68333 26.5655 7.874C26.9989 8.082 27.4409 8.316 27.8915 8.576C28.3422 8.81867 28.7495 9.122 29.1135 9.486C29.4775 9.85 29.7722 10.2833 29.9975 10.786C30.2229 11.2887 30.3355 11.904 30.3355 12.632C30.3355 13.4813 30.1969 14.2007 29.9195 14.79C29.6422 15.362 29.2782 15.83 28.8275 16.194C28.3769 16.5407 27.8569 16.792 27.2675 16.948C26.6955 17.104 26.1062 17.182 25.4995 17.182C24.9275 17.182 24.3642 17.104 23.8095 16.948C23.2549 16.792 22.7435 16.532 22.2755 16.168C21.8249 15.804 21.4522 15.336 21.1575 14.764C20.8802 14.1747 20.7242 13.4553 20.6895 12.606ZM38.1372 5.04C38.1198 4.416 37.9378 3.98267 37.5912 3.74C37.2445 3.48 36.8718 3.35 36.4732 3.35C36.0745 3.35 35.7018 3.48 35.3552 3.74C35.0085 4 34.8352 4.45067 34.8352 5.092V12.84C34.8352 13.4813 35.0085 13.932 35.3552 14.192C35.7018 14.452 36.0745 14.582 36.4732 14.582C36.8718 14.582 37.2358 14.452 37.5652 14.192C37.9118 13.932 38.1025 13.4987 38.1372 12.892C38.1372 12.7533 38.1892 12.632 38.2932 12.528C38.3972 12.424 38.5185 12.372 38.6572 12.372H40.7372C40.8758 12.372 40.9972 12.424 41.1012 12.528C41.2052 12.632 41.2572 12.7533 41.2572 12.892C41.2225 13.4987 41.0752 14.062 40.8152 14.582C40.5725 15.102 40.2345 15.5527 39.8012 15.934C39.3852 16.3153 38.8912 16.6187 38.3192 16.844C37.7472 17.052 37.1318 17.156 36.4732 17.156C35.7798 17.156 35.1385 17.0433 34.5492 16.818C33.9772 16.5927 33.4745 16.2807 33.0412 15.882C32.6252 15.4833 32.2958 15.0153 32.0532 14.478C31.8278 13.9233 31.7152 13.3253 31.7152 12.684V5.248C31.7152 4.60667 31.8278 4.01733 32.0532 3.48C32.2958 2.92533 32.6252 2.44867 33.0412 2.05C33.4745 1.634 33.9772 1.31333 34.5492 1.088C35.1385 0.862666 35.7798 0.75 36.4732 0.75C37.1318 0.75 37.7472 0.862666 38.3192 1.088C38.8912 1.296 39.3852 1.59067 39.8012 1.972C40.2345 2.35333 40.5812 2.804 40.8412 3.324C41.1012 3.844 41.2398 4.416 41.2572 5.04C41.2572 5.17867 41.2052 5.3 41.1012 5.404C40.9972 5.508 40.8758 5.56 40.7372 5.56H38.6572C38.5185 5.56 38.3972 5.508 38.2932 5.404C38.1892 5.3 38.1372 5.17867 38.1372 5.04ZM47.4171 14.582C47.8158 14.582 48.1885 14.452 48.5351 14.192C48.8991 13.932 49.0811 13.4813 49.0811 12.84V5.092C49.0811 4.45067 48.8991 4 48.5351 3.74C48.1885 3.48 47.8158 3.35 47.4171 3.35C47.0185 3.35 46.6371 3.48 46.2731 3.74C45.9265 4 45.7531 4.45067 45.7531 5.092V12.84C45.7531 13.4813 45.9265 13.932 46.2731 14.192C46.6371 14.452 47.0185 14.582 47.4171 14.582ZM47.4171 0.75C48.1105 0.75 48.7518 0.862666 49.3411 1.088C49.9305 1.31333 50.4331 1.634 50.8491 2.05C51.2825 2.44867 51.6118 2.92533 51.8371 3.48C52.0798 4.01733 52.2011 4.60667 52.2011 5.248V12.684C52.2011 13.3253 52.0798 13.9233 51.8371 14.478C51.6118 15.0153 51.2825 15.492 50.8491 15.908C50.4331 16.3067 49.9305 16.6187 49.3411 16.844C48.7518 17.0693 48.1105 17.182 47.4171 17.182C46.7238 17.182 46.0825 17.0693 45.4931 16.844C44.9038 16.6187 44.3925 16.3067 43.9591 15.908C43.5431 15.492 43.2138 15.0153 42.9711 14.478C42.7458 13.9233 42.6331 13.3253 42.6331 12.684V5.248C42.6331 4.60667 42.7458 4.01733 42.9711 3.48C43.2138 2.92533 43.5431 2.44867 43.9591 2.05C44.3925 1.634 44.9038 1.31333 45.4931 1.088C46.0825 0.862666 46.7238 0.75 47.4171 0.75ZM60.8238 1.426C60.8585 1.28733 60.9191 1.17467 61.0058 1.088C61.0925 0.983999 61.2051 0.931999 61.3438 0.931999H63.3978C63.5365 0.931999 63.6578 0.983999 63.7618 1.088C63.8658 1.17467 63.9178 1.28733 63.9178 1.426L60.5378 16.506C60.5031 16.6447 60.4425 16.766 60.3558 16.87C60.2691 16.9567 60.1565 17 60.0178 17H57.1058C56.9671 17 56.8545 16.9567 56.7678 16.87C56.6811 16.766 56.6205 16.6447 56.5858 16.506L53.2058 1.426C53.2058 1.28733 53.2578 1.17467 53.3618 1.088C53.4658 0.983999 53.5871 0.931999 53.7258 0.931999H55.7798C55.9185 0.931999 56.0311 0.983999 56.1178 1.088C56.2045 1.17467 56.2651 1.28733 56.2998 1.426L58.5618 11.722L60.8238 1.426ZM65.437 1.426C65.437 1.28733 65.489 1.17467 65.593 1.088C65.697 0.983999 65.8183 0.931999 65.957 0.931999H72.613C72.7516 0.931999 72.8643 0.983999 72.951 1.088C73.055 1.192 73.107 1.31333 73.107 1.452V3.012C73.107 3.15067 73.055 3.272 72.951 3.376C72.8643 3.48 72.7516 3.532 72.613 3.532H68.557V8.134H71.391C71.5296 8.134 71.6423 8.186 71.729 8.29C71.833 8.394 71.885 8.51533 71.885 8.654V10.214C71.885 10.3527 71.833 10.474 71.729 10.578C71.6423 10.682 71.5296 10.734 71.391 10.734H68.557V14.4H72.613C72.7516 14.4 72.8643 14.452 72.951 14.556C73.055 14.66 73.107 14.7813 73.107 14.92V16.48C73.107 16.6187 73.055 16.74 72.951 16.844C72.8643 16.948 72.7516 17 72.613 17H65.957C65.8183 17 65.697 16.9567 65.593 16.87C65.489 16.766 65.437 16.6447 65.437 16.506V1.426ZM84.4962 7.536C84.4962 8.35067 84.3229 9.06133 83.9762 9.668C83.6295 10.2747 83.1789 10.7687 82.6242 11.15L84.3922 16.506C84.3922 16.6273 84.3315 16.74 84.2102 16.844C84.1062 16.948 83.9849 17 83.8462 17H81.8962C81.7402 17 81.6189 16.948 81.5322 16.844C81.4629 16.74 81.4022 16.6273 81.3502 16.506L79.9462 12.034H78.2562V16.506C78.2562 16.6273 78.2042 16.74 78.1002 16.844C77.9962 16.948 77.8749 17 77.7362 17H75.6562C75.5175 17 75.3962 16.948 75.2922 16.844C75.1882 16.74 75.1362 16.6273 75.1362 16.506V1.4C75.1362 1.27867 75.1882 1.17467 75.2922 1.088C75.3962 0.983999 75.5175 0.931999 75.6562 0.931999H79.7902C80.3969 0.931999 80.9775 1.036 81.5322 1.244C82.1042 1.43467 82.6069 1.72933 83.0402 2.128C83.4735 2.50933 83.8202 2.986 84.0802 3.558C84.3575 4.11267 84.4962 4.754 84.4962 5.482V7.536ZM78.2562 9.46H79.7382C80.1369 9.46 80.5095 9.28667 80.8562 8.94C81.2202 8.59333 81.4022 8.09067 81.4022 7.432V5.534C81.4022 4.87533 81.2202 4.38133 80.8562 4.052C80.5095 3.70533 80.1369 3.532 79.7382 3.532H78.2562V9.46Z" fill="white"/>
</g>
<g filter="url(#filter1_d_92_1933)">
<path d="M14.664 39.5278C14.928 39.5278 15.144 39.6238 15.312 39.8158C15.48 39.9838 15.588 40.1878 15.636 40.4278V43.3798C15.612 43.5718 15.504 43.7758 15.312 43.9918C15.144 44.1838 14.928 44.2798 14.664 44.2798H5.304C5.04 44.2318 4.8 44.1118 4.584 43.9198C4.392 43.7038 4.296 43.4638 4.296 43.1998V23.0758C4.296 22.8118 4.392 22.5838 4.584 22.3918C4.8 22.1998 5.04 22.0798 5.304 22.0318H8.76C9.024 22.0798 9.252 22.1998 9.444 22.3918C9.636 22.5838 9.732 22.8118 9.732 23.0758V39.5278H14.664ZM17.339 23.0758C17.339 22.8118 17.435 22.5838 17.627 22.3918C17.819 22.1998 18.059 22.0798 18.347 22.0318H21.803C22.067 22.0798 22.295 22.1998 22.487 22.3918C22.679 22.5838 22.775 22.8118 22.775 23.0758V43.1998C22.775 43.4638 22.679 43.7038 22.487 43.9198C22.295 44.1118 22.067 44.2318 21.803 44.2798H18.347C18.059 44.2318 17.819 44.1118 17.627 43.9198C17.435 43.7038 17.339 43.4638 17.339 43.1998V23.0758ZM30.7906 36.5038V43.1998C30.7906 43.4638 30.6826 43.7038 30.4666 43.9198C30.2506 44.1358 30.0226 44.2558 29.7826 44.2798H26.3626C26.0746 44.2318 25.8346 44.1118 25.6426 43.9198C25.4506 43.7038 25.3546 43.4638 25.3546 43.1998V23.0758C25.3546 22.8118 25.4506 22.5838 25.6426 22.3918C25.8346 22.1998 26.0746 22.0798 26.3626 22.0318H29.3866C29.6266 22.0798 29.8306 22.1998 29.9986 22.3918C30.1666 22.5838 30.2986 22.7758 30.3946 22.9678L33.4906 29.9518V23.0758C33.4906 22.8118 33.5866 22.5838 33.7786 22.3918C33.9706 22.1998 34.1986 22.0798 34.4626 22.0318H37.9186C38.2066 22.0798 38.4466 22.1998 38.6386 22.3918C38.8306 22.5838 38.9266 22.8118 38.9266 23.0758V43.2358C38.9266 43.5238 38.8306 43.7638 38.6386 43.9558C38.4466 44.1238 38.2066 44.2318 37.9186 44.2798H34.8586C34.5946 44.2318 34.3786 44.1238 34.2106 43.9558C34.0666 43.7638 33.9466 43.5598 33.8506 43.3438L30.7906 36.5038ZM41.3465 28.3318C41.3465 27.3958 41.5145 26.5318 41.8505 25.7398C42.1865 24.9238 42.6545 24.2278 43.2545 23.6518C43.8785 23.0758 44.6105 22.6198 45.4505 22.2838C46.2905 21.9478 47.2145 21.7798 48.2225 21.7798C49.2065 21.7798 50.1185 21.9478 50.9585 22.2838C51.7985 22.5958 52.5185 23.0518 53.1185 23.6518C53.7425 24.2278 54.2225 24.9118 54.5585 25.7038C54.9185 26.4958 55.0985 27.3598 55.0985 28.2958C55.0985 28.5838 54.9905 28.8358 54.7745 29.0518C54.5825 29.2438 54.3545 29.3518 54.0905 29.3758H50.6705C50.4065 29.3278 50.1665 29.2078 49.9505 29.0158C49.7585 28.8238 49.6625 28.5838 49.6625 28.2958V28.1158C49.6625 27.5158 49.5065 27.1078 49.1945 26.8918C48.8825 26.6518 48.5585 26.5318 48.2225 26.5318C47.8865 26.5318 47.5625 26.6518 47.2505 26.8918C46.9385 27.1078 46.7825 27.5158 46.7825 28.1158V38.1958C46.7825 38.7958 46.9385 39.2158 47.2505 39.4558C47.5625 39.6718 47.8865 39.7798 48.2225 39.7798C48.5585 39.7798 48.8825 39.6598 49.1945 39.4198C49.5065 39.1798 49.6625 38.7718 49.6625 38.1958V37.9798C49.6625 37.6918 49.7585 37.4638 49.9505 37.2958C50.1665 37.1038 50.4065 36.9838 50.6705 36.9358H54.0905C54.3545 36.9838 54.5825 37.1038 54.7745 37.2958C54.9905 37.4638 55.0985 37.6918 55.0985 37.9798C55.0985 38.9158 54.9185 39.7798 54.5585 40.5718C54.2225 41.3638 53.7425 42.0598 53.1185 42.6598C52.5185 43.2358 51.7985 43.6918 50.9585 44.0278C50.1185 44.3398 49.2065 44.4958 48.2225 44.4958C47.2145 44.4958 46.2905 44.3398 45.4505 44.0278C44.6105 43.6918 43.8785 43.2358 43.2545 42.6598C42.6545 42.0598 42.1865 41.3638 41.8505 40.5718C41.5145 39.7798 41.3465 38.9158 41.3465 37.9798V28.3318ZM63.3045 26.5318C62.9685 26.5318 62.6445 26.6518 62.3325 26.8918C62.0205 27.1078 61.8645 27.5158 61.8645 28.1158V38.1958C61.8645 38.7958 62.0205 39.2158 62.3325 39.4558C62.6445 39.6718 62.9685 39.7798 63.3045 39.7798C63.6405 39.7798 63.9645 39.6718 64.2765 39.4558C64.5885 39.2158 64.7445 38.7958 64.7445 38.1958V28.1158C64.7445 27.5158 64.5885 27.1078 64.2765 26.8918C63.9645 26.6518 63.6405 26.5318 63.3045 26.5318ZM63.3045 44.5318C62.2965 44.5318 61.3725 44.3638 60.5325 44.0278C59.6925 43.6918 58.9605 43.2358 58.3365 42.6598C57.7365 42.0838 57.2685 41.3998 56.9325 40.6078C56.5965 39.7918 56.4285 38.9158 56.4285 37.9798V28.3318C56.4285 27.3958 56.5965 26.5318 56.9325 25.7398C57.2685 24.9238 57.7365 24.2278 58.3365 23.6518C58.9605 23.0758 59.6925 22.6198 60.5325 22.2838C61.3725 21.9478 62.2965 21.7798 63.3045 21.7798C64.3125 21.7798 65.2365 21.9478 66.0765 22.2838C66.9165 22.6198 67.6365 23.0758 68.2365 23.6518C68.8605 24.2278 69.3405 24.9238 69.6765 25.7398C70.0125 26.5318 70.1805 27.3958 70.1805 28.3318V37.9798C70.1805 38.9158 70.0125 39.7918 69.6765 40.6078C69.3405 41.3998 68.8605 42.0838 68.2365 42.6598C67.6365 43.2358 66.9165 43.6918 66.0765 44.0278C65.2365 44.3638 64.3125 44.5318 63.3045 44.5318ZM82.9726 39.5278C83.2366 39.5278 83.4526 39.6238 83.6206 39.8158C83.7886 39.9838 83.8966 40.1878 83.9446 40.4278V43.3798C83.9206 43.5718 83.8126 43.7758 83.6206 43.9918C83.4526 44.1838 83.2366 44.2798 82.9726 44.2798H73.6126C73.3486 44.2318 73.1086 44.1118 72.8926 43.9198C72.7006 43.7038 72.6046 43.4638 72.6046 43.1998V23.0758C72.6046 22.8118 72.7006 22.5838 72.8926 22.3918C73.1086 22.1998 73.3486 22.0798 73.6126 22.0318H77.0686C77.3326 22.0798 77.5606 22.1998 77.7526 22.3918C77.9446 22.5838 78.0406 22.8118 78.0406 23.0758V39.5278H82.9726ZM91.0836 36.5038V43.1998C91.0836 43.4638 90.9756 43.7038 90.7596 43.9198C90.5436 44.1358 90.3156 44.2558 90.0756 44.2798H86.6556C86.3676 44.2318 86.1276 44.1118 85.9356 43.9198C85.7436 43.7038 85.6476 43.4638 85.6476 43.1998V23.0758C85.6476 22.8118 85.7436 22.5838 85.9356 22.3918C86.1276 22.1998 86.3676 22.0798 86.6556 22.0318H89.6796C89.9196 22.0798 90.1236 22.1998 90.2916 22.3918C90.4596 22.5838 90.5916 22.7758 90.6876 22.9678L93.7836 29.9518V23.0758C93.7836 22.8118 93.8796 22.5838 94.0716 22.3918C94.2636 22.1998 94.4916 22.0798 94.7556 22.0318H98.2116C98.4996 22.0798 98.7396 22.1998 98.9316 22.3918C99.1236 22.5838 99.2196 22.8118 99.2196 23.0758V43.2358C99.2196 43.5238 99.1236 43.7638 98.9316 43.9558C98.7396 44.1238 98.4996 44.2318 98.2116 44.2798H95.1516C94.8876 44.2318 94.6716 44.1238 94.5036 43.9558C94.3596 43.7638 94.2396 43.5598 94.1436 43.3438L91.0836 36.5038Z" fill="white"/>
</g>
<defs>
<filter id="filter0_d_92_1933" x="0.144531" y="0.75" width="88.3516" height="24.4321" filterUnits="userSpaceOnUse" color-interpolation-filters="sRGB">
<feFlood flood-opacity="0" result="BackgroundImageFix"/>
<feColorMatrix in="SourceAlpha" type="matrix" values="0 0 0 0 0 0 0 0 0 0 0 0 0 0 0 0 0 0 127 0" result="hardAlpha"/>
<feOffset dy="4"/>
<feGaussianBlur stdDeviation="2"/>
<feComposite in2="hardAlpha" operator="out"/>
<feColorMatrix type="matrix" values="0 0 0 0 0 0 0 0 0 0 0 0 0 0 0 0 0 0 0.25 0"/>
<feBlend mode="normal" in2="BackgroundImageFix" result="effect1_dropShadow_92_1933"/>
<feBlend mode="normal" in="SourceGraphic" in2="effect1_dropShadow_92_1933" result="shape"/>
</filter>
<filter id="filter1_d_92_1933" x="0.296875" y="21.7798" width="102.922" height="30.752" filterUnits="userSpaceOnUse" color-interpolation-filters="sRGB">
<feFlood flood-opacity="0" result="BackgroundImageFix"/>
<feColorMatrix in="SourceAlpha" type="matrix" values="0 0 0 0 0 0 0 0 0 0 0 0 0 0 0 0 0 0 127 0" result="hardAlpha"/>
<feOffset dy="4"/>
<feGaussianBlur stdDeviation="2"/>
<feComposite in2="hardAlpha" operator="out"/>
<feColorMatrix type="matrix" values="0 0 0 0 0 0 0 0 0 0 0 0 0 0 0 0 0 0 0.25 0"/>
<feBlend mode="normal" in2="BackgroundImageFix" result="effect1_dropShadow_92_1933"/>
<feBlend mode="normal" in="SourceGraphic" in2="effect1_dropShadow_92_1933" result="shape"/>
</filter>
</defs>
</svg>
