<svg
    xmlns="http://www.w3.org/2000/svg"
    width="17"
    height="26"
    viewBox="0 0 17 26"
    fill="none"
>
    <path
        fill-rule="evenodd"
        clip-rule="evenodd"
        d="M4.20434 1.19319C6.80537 -0.423801 10.0025 -0.395538 12.5791 1.26722C15.1304 2.96385 16.681 5.99182 16.6666 9.24908C16.6072 12.485 14.9445 15.5267 12.8661 17.8781C11.6665 19.2414 10.3246 20.4469 8.86772 21.4699C8.71768 21.5628 8.55332 21.6249 8.38277 21.6533C8.21862 21.6458 8.05876 21.5939 7.91761 21.5023C5.6934 19.9651 3.74209 18.0029 2.15755 15.7101C0.831658 13.7962 0.0783763 11.4839 1.38302e-06 9.08728C-0.00171986 5.82378 1.6033 2.81018 4.20434 1.19319ZM5.70678 10.438C6.14431 11.592 7.17705 12.3448 8.3228 12.3448C9.0734 12.3506 9.79493 12.0289 10.3266 11.4515C10.8583 10.874 11.156 10.0888 11.1533 9.27072C11.1573 8.02203 10.4703 6.89386 9.41288 6.41298C8.3555 5.9321 7.13641 6.19336 6.32483 7.07478C5.51324 7.95619 5.26926 9.28389 5.70678 10.438Z"
        fill="black"
    />
    <ellipse
        opacity="0.4"
        cx="8.33132"
        cy="24.2005"
        rx="5.95242"
        ry="1.27372"
        fill="black"
    />
</svg>